<?xml version="1.0" encoding="utf-8"?>
<!-- Generator: Adobe Illustrator 22.0.1, SVG Export Plug-In . SVG Version: 6.00 Build 0)  -->
<svg version="1.1" id="圖層_1" xmlns="http://www.w3.org/2000/svg" xmlns:xlink="http://www.w3.org/1999/xlink" x="0px" y="0px"
	 viewBox="0 0 699.1 103.5" style="enable-background:new 0 0 699.1 103.5;" xml:space="preserve">
<style type="text/css">
	.st0{fill:#FFFFFF;}
	.st1{fill:#D61518;}
</style>
<g>
	<path class="st0" d="M0,25.9V2.7L1.4,0h91.3l1.3,2.7v23.2l-1.3,2.7H1.4L0,25.9z M30.7,101V41l1.4-2.7H62l1.3,2.7v60l-1.3,2.5h-30
		L30.7,101z"/>
	<path class="st0" d="M103.5,28.6v-5.8c0-3.6,0.6-6.8,1.8-9.7c1.2-2.9,2.7-5.3,4.5-7.2c1.8-1.9,3.7-3.4,5.8-4.4c2.1-1,4-1.5,5.8-1.5
		h63.3c1.8,0,3.7,0.5,5.7,1.5c2,1,3.9,2.5,5.7,4.4s3.3,4.3,4.5,7.2c1.2,2.9,1.8,6.1,1.8,9.7v5.8H103.5z M137.3,75h31.2l1.3-2.7V41
		l1.3-2.7h29.8l1.4,2.7v39.7c0,3.1-0.5,6-1.5,8.7c-1,2.7-2.3,5.2-3.9,7.3c-1.7,2.1-3.5,3.8-5.7,5c-2.1,1.2-4.3,1.8-6.6,1.8h-63.3
		c-2.3,0-4.5-0.6-6.7-1.8c-2.2-1.2-4.1-2.9-5.7-5c-1.7-2.1-3-4.5-3.9-7.3c-1-2.7-1.5-5.7-1.5-8.7V41l1.4-2.7h29.9l1.3,2.7v31.2
		L137.3,75z"/>
	<path class="st0" d="M211.8,26.1V2.7l1.4-2.7h79.7c1.8,0,3.7,0.5,5.7,1.5c2,1,3.9,2.5,5.7,4.4s3.3,4.3,4.5,7.2
		c1.2,2.9,1.8,6.1,1.8,9.7v5.8h-97.4L211.8,26.1z M310.5,44.1c0,3.7-0.6,7-1.8,9.8c-1.2,2.8-2.7,5.2-4.5,7.1s-3.7,3.4-5.7,4.4
		c-2,1-3.9,1.5-5.7,1.5h-47.1l-1.4,2.7V101l-1.3,2.5h-29.9l-1.4-2.5V41l1.4-2.7h97.4V44.1z"/>
	<path class="st1" d="M320.1,25.9V2.7l1.4-2.7h91.3l1.3,2.7v23.2l-1.3,2.7h-91.3L320.1,25.9z M350.8,101V41l1.4-2.7h29.9l1.3,2.7v60
		l-1.3,2.5h-30L350.8,101z"/>
	<path class="st1" d="M456.1,2.7v23.2l-1.3,2.7H425l-1.4-2.7V2.7L425,0h29.9L456.1,2.7z M423.6,101V41l1.4-2.7h29.9l1.3,2.7v60
		l-1.3,2.5H425L423.6,101z"/>
	<path class="st1" d="M465.6,2.7L467,0h114.2c1.8,0,3.7,0.5,5.7,1.5c2,1,3.9,2.5,5.7,4.4s3.3,4.3,4.5,7.2c1.2,2.9,1.8,6.1,1.8,9.7
		v5.8H467l-1.4-2.7V2.7z M465.6,41l1.4-2.7h29.9l1.3,2.7v59.8l-1.3,2.7H467l-1.4-2.7V41z M516,41l1.4-2.7H547l1.5,2.7v59.8l-1.3,2.7
		h-29.9l-1.4-2.7V41z M566.4,41l1.4-2.7h29.7l1.4,2.7v59.8l-1.1,2.7h-29.9l-1.4-2.7V41z"/>
	<path class="st1" d="M608.4,25.9V2.7l1.4-2.7h88.1l1.3,2.7v23.2l-1.3,2.7h-88.1L608.4,25.9z M608.4,41l1.4-2.7h87.9L699,41v21.1
		l-1.3,2.7h-55.5l-1.3,3.3v3.5l1.3,3.5h55.6l1.3,2.7v23.2l-1.3,2.7h-88.1l-1.4-2.7V41z"/>
</g>
</svg>
