<svg width="24" height="24" viewBox="0 0 24 24" fill="none" xmlns="http://www.w3.org/2000/svg">
<path d="M4 4C3.44772 4 3 4.44772 3 5C3 5.55228 3.44772 6 4 6V4ZM18 19C18 19.5523 18.4477 20 19 20C19.5523 20 20 19.5523 20 19H18ZM4 6H17V4H4V6ZM18 7V19H20V7H18ZM17 6C17.5523 6 18 6.44772 18 7H20C20 5.34315 18.6569 4 17 4V6Z" fill="white"/>
<rect x="2" y="8" width="14" height="14" rx="1" stroke="white" stroke-width="2" stroke-linejoin="round"/>
<path d="M6 1C5.44772 1 5 1.44772 5 2C5 2.55228 5.44772 3 6 3V1ZM21 17C21 17.5523 21.4477 18 22 18C22.5523 18 23 17.5523 23 17H21ZM6 3H20V1H6V3ZM21 4V17H23V4H21ZM20 3C20.5523 3 21 3.44772 21 4H23C23 2.34315 21.6569 1 20 1V3Z" fill="white"/>
</svg>
