<?xml version="1.0" encoding="utf-8"?>
<!-- Generator: Adobe Illustrator 24.2.3, SVG Export Plug-In . SVG Version: 6.00 Build 0)  -->
<svg version="1.1" id="Layer_1" xmlns="http://www.w3.org/2000/svg" xmlns:xlink="http://www.w3.org/1999/xlink" x="0px" y="0px"
	 viewBox="0 0 141 20" style="enable-background:new 0 0 141 20;" xml:space="preserve">
<style type="text/css">
	.st0{fill:#FFFFFF;}
</style>
<path class="st0" d="M33.67,8.39c-1.44-0.36-2.68-0.66-2.68-1.47c0-0.83,0.69-1.32,1.86-1.32c1.52,0,2.99,0.29,4.03,1.29L36.99,7
	l1.84-2.3l-0.09-0.09c-1.44-1.39-3.33-2.1-5.62-2.1c-3.19,0-5.51,1.96-5.51,4.65c0,3.43,2.96,4.15,5.34,4.73
	c1.51,0.37,2.82,0.69,2.82,1.62c0,0.69-0.61,1.5-2.33,1.5c-2.25,0-3.73-1.24-4.4-1.98l-0.12-0.13l-1.82,2.71l0.08,0.09
	c1.52,1.59,3.58,2.39,6.13,2.39c3.58,0,5.81-1.88,5.81-4.89C39.12,9.74,35.97,8.96,33.67,8.39"/>
<path class="st0" d="M139,3.73h0.37c0.12,0,0.21-0.03,0.28-0.09c0.07-0.06,0.1-0.14,0.1-0.24c0-0.1-0.03-0.18-0.1-0.23
	c-0.07-0.05-0.16-0.08-0.28-0.08H139V3.73z M139.95,3.72c-0.06,0.09-0.14,0.16-0.24,0.21l0.37,0.54h-0.36l-0.29-0.49h-0.06H139v0.49
	h-0.31V2.83h0.68c0.21,0,0.38,0.05,0.5,0.15c0.12,0.1,0.18,0.24,0.18,0.42C140.04,3.52,140.01,3.63,139.95,3.72 M140.01,4.87
	c0.21-0.12,0.38-0.29,0.5-0.5c0.12-0.21,0.18-0.44,0.18-0.68c0-0.24-0.06-0.47-0.18-0.68c-0.12-0.21-0.28-0.37-0.49-0.49
	c-0.21-0.12-0.44-0.18-0.69-0.18c-0.25,0-0.48,0.06-0.69,0.19c-0.21,0.12-0.38,0.29-0.5,0.5c-0.12,0.21-0.18,0.43-0.18,0.68
	c0,0.24,0.06,0.47,0.18,0.68c0.12,0.21,0.28,0.37,0.49,0.49c0.21,0.12,0.44,0.18,0.69,0.18C139.57,5.06,139.8,5,140.01,4.87
	 M140.17,2.24c0.26,0.15,0.46,0.35,0.61,0.61C140.93,3.11,141,3.39,141,3.7c0,0.3-0.07,0.58-0.22,0.84
	c-0.15,0.26-0.35,0.47-0.61,0.62c-0.26,0.15-0.54,0.23-0.85,0.23c-0.31,0-0.59-0.08-0.85-0.23c-0.26-0.15-0.46-0.36-0.61-0.61
	c-0.15-0.26-0.22-0.54-0.22-0.84c0-0.3,0.07-0.58,0.22-0.84c0.15-0.26,0.35-0.47,0.61-0.62c0.26-0.15,0.54-0.23,0.85-0.23
	C139.63,2.02,139.91,2.09,140.17,2.24"/>
<path class="st0" d="M117.99,14.11c-0.69,0.37-1.56,0.56-2.58,0.56c-1.07,0-1.97-0.39-2.74-1.18c-0.77-0.79-1.15-1.86-1.15-3.18
	c0-1.32,0.4-2.4,1.2-3.2c0.8-0.8,1.79-1.21,2.96-1.21c0.61,0,1.18,0.1,1.7,0.31c0.52,0.21,1.11,0.6,1.74,1.15l0.2,0.18l1.96-2.87
	l-0.16-0.14c-1.58-1.43-3.47-2.15-5.62-2.15c-2.15,0-4.01,0.76-5.53,2.27c-1.52,1.51-2.29,3.41-2.29,5.66
	c0,2.25,0.76,4.14,2.25,5.61c1.49,1.48,3.36,2.22,5.56,2.22c2.62,0,4.7-0.85,6.19-2.53l0.06-0.07V9.96h-3.76V14.11z"/>
<polygon class="st0" points="99.54,11.87 106.08,11.87 106.08,8.61 99.54,8.61 99.54,6.09 106.81,6.09 106.81,2.7 95.81,2.7 
	95.81,17.78 107.04,17.78 107.04,14.42 99.54,14.42 "/>
<path class="st0" d="M49.42,2.72v8.36c0,1.12-0.25,2-0.75,2.64c-0.49,0.62-1.14,0.93-1.99,0.93c-0.85,0-1.5-0.3-2-0.93
	c-0.5-0.63-0.76-1.52-0.76-2.64V2.72h-3.73v8.47c0,2.18,0.62,3.88,1.84,5.07c1.22,1.19,2.79,1.79,4.66,1.79
	c1.88,0,3.44-0.6,4.65-1.78c1.21-1.18,1.83-2.9,1.83-5.09V2.72H49.42z"/>
<path class="st0" d="M62.52,9.85c-0.34,0.38-1.02,0.58-2.03,0.58h-1.95V6h1.62c1.02,0,1.77,0.17,2.23,0.49
	c0.44,0.31,0.66,0.83,0.66,1.6C63.04,8.86,62.86,9.46,62.52,9.85 M65.24,4.08c-1.06-0.9-2.76-1.36-5.05-1.36H54.8V17.8h3.73v-4.07
	h1.7c2.2,0,3.87-0.44,4.96-1.31c1.11-0.88,1.67-2.27,1.67-4.14C66.86,6.41,66.31,5,65.24,4.08"/>
<polygon class="st0" points="71.73,11.89 78.26,11.89 78.26,8.63 71.73,8.63 71.73,6.1 78.99,6.1 78.99,2.72 68,2.72 68,17.8 
	79.22,17.8 79.22,14.44 71.73,14.44 "/>
<path class="st0" d="M89.22,7.82c0,0.71-0.18,1.23-0.53,1.55c-0.36,0.32-1.07,0.48-2.11,0.48h-2.14V6h2.2c0.99,0,1.68,0.13,2.05,0.4
	C89.04,6.64,89.22,7.12,89.22,7.82 M93.01,7.8c0-1.77-0.52-3.07-1.54-3.88c-1.01-0.8-2.69-1.2-5-1.2H80.7V17.8h3.73v-4.66h1.89
	l3.23,4.66h4.59l-3.79-5.35C92.13,11.68,93.01,10.12,93.01,7.8"/>
<path class="st0" d="M130.58,2.28c-4.36,0-7.89,3.53-7.89,7.88c0,4.35,3.53,7.88,7.89,7.88c4.36,0,7.89-3.53,7.89-7.88
	C138.47,5.81,134.94,2.28,130.58,2.28 M130.58,5.95c2.32,0,4.22,1.89,4.22,4.21c0,2.32-1.89,4.21-4.22,4.21
	c-2.33,0-4.22-1.89-4.22-4.21C126.36,7.84,128.26,5.95,130.58,5.95"/>
<path class="st0" d="M10,0C4.48,0,0,4.48,0,10c0,1.99,0.58,3.84,1.58,5.4L0,20l4.61-1.58C6.16,19.42,8.01,20,10,20
	c5.52,0,10-4.48,10-10C20,4.48,15.52,0,10,0z M15.48,15.48l-2.5-0.86C12.12,15.18,11.1,15.5,10,15.5c-3.04,0-5.5-2.46-5.5-5.5
	c0-3.04,2.46-5.5,5.5-5.5s5.5,2.46,5.5,5.5c0,1.1-0.32,2.12-0.88,2.98L15.48,15.48z"/>
</svg>
