<?xml version="1.0" encoding="utf-8"?>
<!-- Generator: Adobe Illustrator 22.0.1, SVG Export Plug-In . SVG Version: 6.00 Build 0)  -->
<svg version="1.1" id="圖層_1" xmlns="http://www.w3.org/2000/svg" xmlns:xlink="http://www.w3.org/1999/xlink" x="0px" y="0px"
	 viewBox="0 0 50 50" style="enable-background:new 0 0 50 50;" xml:space="preserve">
<style type="text/css">
	.st0{fill:#FFFFFF;}
</style>
<path class="st0" d="M32,11h5c0.6,0,1-0.4,1-1V3.3c0-0.5-0.4-1-0.9-1C35.5,2.2,32.4,2,30.1,2C24,2,20,5.7,20,12.4V19h-7
	c-0.6,0-1,0.4-1,1v7c0,0.6,0.4,1,1,1h7v19c0,0.6,0.4,1,1,1h7c0.6,0,1-0.4,1-1V28h7.2c0.5,0,0.9-0.4,1-0.9l0.8-7
	c0.1-0.6-0.4-1.1-1-1.1h-8v-5C29,12.3,30.3,11,32,11z"/>
</svg>
