<?xml version="1.0" encoding="utf-8"?>
<!-- Generator: Adobe Illustrator 22.0.1, SVG Export Plug-In . SVG Version: 6.00 Build 0)  -->
<svg version="1.1" id="圖層_1" xmlns="http://www.w3.org/2000/svg" xmlns:xlink="http://www.w3.org/1999/xlink" x="0px" y="0px"
	 viewBox="0 0 201 86" style="enable-background:new 0 0 201 86;" xml:space="preserve">
<style type="text/css">
	.st0{fill:#FFFFFF;}
	.st1{fill:#D61518;}
</style>
<g>
	<g>
		<path class="st0" d="M0,63.8v-6.6l0.4-0.8h26.1l0.4,0.8v6.6l-0.4,0.8H0.4L0,63.8z M8.8,85.3V68.2l0.4-0.8h8.6l0.4,0.8v17.2
			L17.7,86H9.1L8.8,85.3z"/>
		<path class="st0" d="M29.6,64.6V63c0-1,0.2-1.9,0.5-2.8c0.3-0.8,0.8-1.5,1.3-2.1c0.5-0.5,1.1-1,1.7-1.3c0.6-0.3,1.1-0.4,1.7-0.4
			h18.1c0.5,0,1.1,0.1,1.6,0.4c0.6,0.3,1.1,0.7,1.6,1.3s0.9,1.2,1.3,2.1c0.3,0.8,0.5,1.7,0.5,2.8v1.6H29.6z M39.3,77.9h8.9l0.4-0.8
			v-8.9l0.4-0.8h8.5l0.4,0.8v11.3c0,0.9-0.1,1.7-0.4,2.5c-0.3,0.8-0.7,1.5-1.1,2.1c-0.5,0.6-1,1.1-1.6,1.4C54,85.9,53.4,86,52.8,86
			H34.7c-0.7,0-1.3-0.2-1.9-0.5c-0.6-0.3-1.2-0.8-1.6-1.4c-0.5-0.6-0.8-1.3-1.1-2.1c-0.3-0.8-0.4-1.6-0.4-2.5V68.2l0.4-0.8h8.6
			l0.4,0.8v8.9L39.3,77.9z"/>
		<path class="st0" d="M60.5,63.9v-6.7l0.4-0.8h22.8c0.5,0,1.1,0.1,1.6,0.4c0.6,0.3,1.1,0.7,1.6,1.3s0.9,1.2,1.3,2.1
			c0.3,0.8,0.5,1.7,0.5,2.8v1.6H60.9L60.5,63.9z M88.8,69c0,1.1-0.2,2-0.5,2.8c-0.3,0.8-0.8,1.5-1.3,2c-0.5,0.5-1.1,1-1.6,1.3
			c-0.6,0.3-1.1,0.4-1.6,0.4H70.3l-0.4,0.8v9L69.5,86h-8.6l-0.4-0.7V68.2l0.4-0.8h27.8V69z"/>
		<path class="st1" d="M91.5,63.8v-6.6l0.4-0.8H118l0.4,0.8v6.6l-0.4,0.8H91.9L91.5,63.8z M100.3,85.3V68.2l0.4-0.8h8.6l0.4,0.8
			v17.2l-0.4,0.7h-8.6L100.3,85.3z"/>
		<path class="st1" d="M130.4,57.2v6.6l-0.4,0.8h-8.6l-0.4-0.8v-6.6l0.4-0.8h8.6L130.4,57.2z M121.1,85.3V68.2l0.4-0.8h8.6l0.4,0.8
			v17.2L130,86h-8.6L121.1,85.3z"/>
		<path class="st1" d="M133.1,57.2l0.4-0.8h32.6c0.5,0,1.1,0.1,1.6,0.4c0.6,0.3,1.1,0.7,1.6,1.3c0.5,0.5,0.9,1.2,1.3,2.1
			c0.3,0.8,0.5,1.7,0.5,2.8v1.6h-37.7l-0.4-0.8V57.2z M133.1,68.2l0.4-0.8h8.6l0.4,0.8v17.1L142,86h-8.6l-0.4-0.8V68.2z M147.5,68.2
			l0.4-0.8h8.5l0.4,0.8v17.1l-0.4,0.8h-8.6l-0.4-0.8V68.2z M161.9,68.2l0.4-0.8h8.5l0.4,0.8v17.1l-0.3,0.8h-8.6l-0.4-0.8V68.2z"/>
		<path class="st1" d="M173.9,63.8v-6.6l0.4-0.8h25.2l0.4,0.8v6.6l-0.4,0.8h-25.2L173.9,63.8z M173.9,68.2l0.4-0.8h25.1l0.4,0.8v6
			l-0.4,0.8h-15.9l-0.4,0.9v1l0.4,1h15.9l0.4,0.8v6.6l-0.4,0.8h-25.2l-0.4-0.8V68.2z"/>
	</g>
	<g>
		<path class="st0" d="M77,7.5v11.8l10.3,5.8C87.3,25.1,90.3,12.4,77,7.5z"/>
		<path class="st0" d="M86.5,13c0,0,2.6,2.4,2.6,9.4v17.2l10,5.8v-18C99,27.5,99.8,18,86.5,13z"/>
		<path class="st1" d="M100.8,34.7v-7.9c0,0,0.4-7,7.2-10.9l14.6-8.4l0.2,11.7l-15.7,9.1C107.2,28.3,104.4,29.1,100.8,34.7z"/>
		<path class="st1" d="M111.1,28v11.8l-10.2,5.9v-5.2C100.8,40.5,100.9,31.4,111.1,28z"/>
		<path class="st0" d="M78,6L94,15.3c0,0,6.1,3.2,12.2-0.2l6.5-3.7c0,0-3.7,0.8-9.1-2.3L88.2-0.1L78,6z"/>
		<path class="st1" d="M101.7,6l10.2-6.1L122,6c0,0-4.1,3.7-10.1,3.7S101.7,6,101.7,6z"/>
	</g>
</g>
</svg>
