<?xml version="1.0" encoding="utf-8"?>
<!-- Generator: Adobe Illustrator 22.0.1, SVG Export Plug-In . SVG Version: 6.00 Build 0)  -->
<svg version="1.1" id="圖層_1" xmlns="http://www.w3.org/2000/svg" xmlns:xlink="http://www.w3.org/1999/xlink" x="0px" y="0px"
	 viewBox="0 0 21.8 21.8" style="enable-background:new 0 0 21.8 21.8;" xml:space="preserve">
<style type="text/css">
	.st0{display:none;}
	.st1{display:inline;fill:#FFFFFF;}
	.st2{display:inline;fill:#D61518;}
	.st3{fill:#FFFFFF;}
	.st4{fill:#D61518;}
</style>
<g class="st0">
	<path class="st1" d="M-11.1-3.8V7.4l9.8,5.5C-1.2,12.9,1.6,0.8-11.1-3.8z"/>
	<path class="st1" d="M-2,1.4c0,0,2.5,2.3,2.5,8.9v16.4l9.5,5.5V15.2C10,15.2,10.6,6.2-2,1.4z"/>
	<path class="st2" d="M11.6,22.1v-7.5c0,0,0.4-6.7,6.9-10.4l14-8l0.2,11.1l-14.9,8.6C17.7,15.9,15,16.8,11.6,22.1z"/>
	<path class="st2" d="M21.4,15.7v11.2l-9.8,5.7v-4.9C11.6,27.6,11.7,18.9,21.4,15.7z"/>
	<path class="st1" d="M-10.1-5.3L5.2,3.5c0,0,5.8,3,11.7-0.2l6.2-3.6c0,0-3.5,0.8-8.7-2.2l-14.8-8.7L-10.1-5.3z"/>
	<path class="st2" d="M12.5-5.3l9.7-5.8l9.6,5.8c0,0-3.9,3.6-9.7,3.6S12.5-5.3,12.5-5.3z"/>
</g>
<g>
	<path class="st3" d="M0,3.6v5.6L4.9,12C4.9,12,6.3,5.9,0,3.6z"/>
	<path class="st3" d="M4.5,6.3c0,0,1.2,1.2,1.2,4.5v8.2l4.8,2.8v-8.6C10.5,13.1,10.8,8.6,4.5,6.3z"/>
	<path class="st4" d="M11.3,16.6v-3.7c0,0,0.2-3.3,3.4-5.2l7-4l0.1,5.6l-7.5,4.3C14.4,13.5,13,13.9,11.3,16.6z"/>
	<path class="st4" d="M16.2,13.4V19l-4.9,2.8v-2.5C11.3,19.4,11.4,15,16.2,13.4z"/>
	<path class="st3" d="M0.5,2.9l7.6,4.4c0,0,2.9,1.5,5.8-0.1l3.1-1.8c0,0-1.7,0.4-4.3-1.1L5.3,0L0.5,2.9z"/>
	<path class="st4" d="M11.8,2.9L16.6,0l4.8,2.9c0,0-1.9,1.8-4.8,1.8S11.8,2.9,11.8,2.9z"/>
</g>
</svg>
