<svg width="24" height="24" viewBox="0 0 24 24" fill="none" xmlns="http://www.w3.org/2000/svg">
<path d="M11 11.0001L11 1.00006C12.6569 1.00006 14 2.34321 14 4.00006V9.2793C14 9.70973 13.7246 10.0919 13.3162 10.228L11 11.0001Z" fill="#69B42E"/>
<path d="M14 13L23 13C23 11.3431 21.6569 10 20 10L15.7208 10C15.2903 10 14.9082 10.2754 14.7721 10.6838L14 13Z" fill="#69B42E"/>
<path fill-rule="evenodd" clip-rule="evenodd" d="M1 10L10 10L9.22792 12.3162C9.09181 12.7246 8.70967 13 8.27924 13L4 13C2.34315 13 1 11.6569 1 10ZM11 23.0001V13.0001L13.3162 13.7721C13.7245 13.9082 14 14.2904 14 14.7208V20.0001C14 21.6569 12.6568 23.0001 11 23.0001Z" fill="#69B42E"/>
</svg>
