<?xml version="1.0" encoding="utf-8"?>
<!-- Generator: Adobe Illustrator 24.3.0, SVG Export Plug-In . SVG Version: 6.00 Build 0)  -->
<svg version="1.1" id="Layer_1" xmlns="http://www.w3.org/2000/svg" xmlns:xlink="http://www.w3.org/1999/xlink" x="0px" y="0px"
	 viewBox="0 0 18 18" style="enable-background:new 0 0 18 18;" xml:space="preserve">
<style type="text/css">
	.st0{fill:none;}
	.st1{fill:#FFFFFF;}
</style>
<path class="st0" d="M0,0h18v18H0V0z"/>
<path class="st1" d="M12.4,1.9c2.5,1.2,4.2,3.5,4.5,6.4H18C17.6,3.6,13.7,0,9,0L8.5,0l2.9,2.9L12.4,1.9z M7.7,1.3
	c-0.4-0.4-1.2-0.4-1.6,0L1.3,6.1c-0.4,0.4-0.4,1.2,0,1.6l9,9c0.4,0.4,1.2,0.4,1.6,0l4.8-4.8c0.4-0.4,0.4-1.2,0-1.6L7.7,1.3z
	 M11.1,15.9l-9-9l4.8-4.8l9,9L11.1,15.9z M5.6,16.1C3.2,15,1.4,12.6,1.2,9.8H0C0.4,14.4,4.3,18,9,18l0.5,0l-2.9-2.9
	C6.6,15.1,5.6,16.1,5.6,16.1z"/>
</svg>
