<?xml version="1.0" encoding="utf-8"?>
<!-- Generator: Adobe Illustrator 22.0.1, SVG Export Plug-In . SVG Version: 6.00 Build 0)  -->
<svg version="1.1" id="圖層_1" xmlns="http://www.w3.org/2000/svg" xmlns:xlink="http://www.w3.org/1999/xlink" x="0px" y="0px"
	 viewBox="0 0 1440 1133" style="enable-background:new 0 0 1440 1133;" xml:space="preserve">
<style type="text/css">
	.st0{fill:#050703;}
	.st1{fill:#FFFFFF;}
	.st2{fill:#D61518;}
</style>
<path class="st0" d="M1440,0H0v1133h1440V0z"/>
<g>
	<path class="st1" d="M967.8,383.7v121.2l106.2,59.8C1074.1,564.7,1104.8,433.3,967.8,383.7z"/>
	<path class="st1" d="M1065.6,440.4c0,0,26.6,25.2,26.6,96.4v177.5l102.7,59.8V588.7C1194.9,588.7,1202.2,491.5,1065.6,440.4z"/>
	<path class="st2" d="M1213,663.5v-81.1c0,0,4.3-72,74.4-112.5l150.7-86.2l2,120L1278.7,597C1278.7,597,1249.6,606,1213,663.5z"/>
	<path class="st2" d="M1318.4,594.2v121.2l-105.4,61v-53.1C1213,723.3,1213.8,629.2,1318.4,594.2z"/>
	<path class="st1" d="M978.1,368l165.3,95.2c0,0,63,32.7,125.9-2.4l67.3-38.3c0,0-37.8,8.4-93.6-23.4l-160.1-94L978.1,368z"/>
	<path class="st2" d="M1222,367.6l104.5-62.6l104.1,62.6c0,0-42.1,38.6-104.3,38.6S1222,367.6,1222,367.6z"/>
</g>
</svg>
