<?xml version="1.0" encoding="utf-8"?>
<!-- Generator: Adobe Illustrator 22.0.1, SVG Export Plug-In . SVG Version: 6.00 Build 0)  -->
<svg version="1.1" id="圖層_1" xmlns="http://www.w3.org/2000/svg" xmlns:xlink="http://www.w3.org/1999/xlink" x="0px" y="0px"
	 viewBox="0 0 547 558" style="enable-background:new 0 0 547 558;" xml:space="preserve">
<style type="text/css">
	.st0{fill:#FFFFFF;}
	.st1{fill:#D61518;}
</style>
<g>
	<path class="st0" d="M0,96.6V237l123.1,69.3C123.1,306.2,158.6,154,0,96.6z"/>
	<path class="st0" d="M113.2,162.2c0,0,30.8,29.2,30.8,111.7v205.5l119,69.3V334.1C263,334.1,271.5,221.5,113.2,162.2z"/>
	<path class="st1" d="M283.9,420.6v-93.9c0,0,5-83.4,86.1-130.3l174.6-99.8l2.3,139L360,343.6C360,343.6,326.3,354.1,283.9,420.6z"
		/>
	<path class="st1" d="M406.1,340.4v140.4l-122.1,70.6v-61.5C283.9,489.9,284.8,381,406.1,340.4z"/>
	<path class="st0" d="M11.8,78.4l191.4,110.3c0,0,72.9,37.8,145.8-2.7l77.9-44.4c0,0-43.8,9.8-108.5-27.2L133.1,5.5L11.8,78.4z"/>
	<path class="st1" d="M294.4,77.9l121-72.5L536,77.9c0,0-48.8,44.7-120.8,44.7S294.4,77.9,294.4,77.9z"/>
</g>
</svg>
