<?xml version="1.0" encoding="utf-8"?>
<!-- Generator: Adobe Illustrator 22.0.1, SVG Export Plug-In . SVG Version: 6.00 Build 0)  -->
<svg version="1.1" id="圖層_1" xmlns="http://www.w3.org/2000/svg" xmlns:xlink="http://www.w3.org/1999/xlink" x="0px" y="0px"
	 viewBox="0 0 700 147" style="enable-background:new 0 0 700 147;" xml:space="preserve">
<style type="text/css">
	.st0{fill:#FFFFFF;}
	.st1{fill:#D61518;}
</style>
<g>
	<path class="st0" d="M7.5,49.8v-23l1.4-2.7h90.4l1.3,2.7v23l-1.3,2.7H8.9L7.5,49.8z M37.9,124.3V64.8l1.4-2.7h29.6l1.3,2.7v59.4
		l-1.3,2.5H39.1L37.9,124.3z"/>
	<path class="st0" d="M110,52.5v-5.7c0-3.5,0.6-6.7,1.8-9.6c1.2-2.8,2.6-5.2,4.4-7.1c1.8-1.9,3.7-3.4,5.7-4.4c2.1-1,4-1.5,5.7-1.5
		h62.7c1.8,0,3.7,0.5,5.7,1.5c2,1,3.9,2.5,5.7,4.4c1.8,1.9,3.2,4.3,4.4,7.1c1.2,2.8,1.8,6,1.8,9.6v5.7H110z M143.5,98.4h30.9
		l1.3-2.7v-31l1.3-2.7h29.5l1.4,2.7v39.3c0,3-0.5,5.9-1.4,8.6c-1,2.7-2.3,5.1-3.9,7.2c-1.6,2.1-3.5,3.7-5.6,4.9
		c-2.1,1.2-4.3,1.8-6.6,1.8h-62.7c-2.3,0-4.5-0.6-6.6-1.8c-2.1-1.2-4-2.8-5.7-4.9c-1.6-2.1-2.9-4.5-3.9-7.2c-1-2.7-1.4-5.6-1.4-8.6
		V64.8l1.4-2.7H141l1.3,2.7v31L143.5,98.4z"/>
	<path class="st0" d="M217.3,50V26.8l1.4-2.7h78.9c1.8,0,3.7,0.5,5.7,1.5c2,1,3.9,2.5,5.7,4.4c1.8,1.9,3.2,4.3,4.4,7.1
		c1.2,2.8,1.8,6,1.8,9.6v5.7h-96.4L217.3,50z M315.1,67.8c0,3.7-0.6,6.9-1.8,9.7c-1.2,2.8-2.6,5.1-4.4,7c-1.8,1.9-3.7,3.4-5.7,4.4
		c-2,1-3.9,1.5-5.7,1.5h-46.6l-1.4,2.7v31.1l-1.3,2.5h-29.6l-1.4-2.5V64.8l1.4-2.7h96.4V67.8z"/>
	<path class="st1" d="M324.6,49.8v-23l1.4-2.7h90.4l1.3,2.7v23l-1.3,2.7h-90.4L324.6,49.8z M354.9,124.3V64.8l1.4-2.7h29.6l1.3,2.7
		v59.4l-1.3,2.5h-29.8L354.9,124.3z"/>
	<path class="st1" d="M459.3,26.8v23l-1.3,2.7h-29.6l-1.4-2.7v-23l1.4-2.7h29.6L459.3,26.8z M427,124.3V64.8l1.4-2.7h29.6l1.3,2.7
		v59.4l-1.3,2.5h-29.6L427,124.3z"/>
	<path class="st1" d="M468.7,26.8l1.4-2.7h113.1c1.8,0,3.7,0.5,5.7,1.5c2,1,3.9,2.5,5.7,4.4c1.8,1.9,3.2,4.3,4.4,7.1
		c1.2,2.8,1.8,6,1.8,9.6v5.7H470l-1.4-2.7V26.8z M468.7,64.8l1.4-2.7h29.6l1.3,2.7v59.3l-1.3,2.7H470l-1.4-2.7V64.8z M518.6,64.8
		l1.4-2.7h29.4l1.5,2.7v59.3l-1.3,2.7H520l-1.4-2.7V64.8z M568.5,64.8l1.4-2.7h29.4l1.4,2.7v59.3l-1.1,2.7h-29.6l-1.4-2.7V64.8z"/>
	<path class="st1" d="M610.1,49.8v-23l1.4-2.7h87.2l1.3,2.7v23l-1.3,2.7h-87.2L610.1,49.8z M610.1,64.8l1.4-2.7h87.1l1.3,2.7v20.9
		l-1.3,2.7h-55l-1.3,3.2V95l1.3,3.4h55.1l1.3,2.7v23l-1.3,2.7h-87.2l-1.4-2.7V64.8z"/>
</g>
</svg>
